<svg width="1440" height="800" viewBox="0 0 1440 800" fill="none" xmlns="http://www.w3.org/2000/svg">
<rect width="1440" height="800" fill="url(#paint0_linear_grassy)"/>
<path d="M0 605C281.5 532.5 551 637.5 832 669.5C1113 701.5 1304.5 617.5 1440 644V800H0V605Z" fill="#66BB6A"/>
<path d="M1440 724C1158.5 651.5 889 756.5 608 788.5C327 820.5 135.5 736.5 0 763V800H1440V724Z" fill="#43A047"/>
<g opacity="0.2">
<path d="M209.482 503.925C228.546 488.663 255.958 491.568 270.956 510.667C285.955 529.766 282.854 557.817 263.79 573.079C244.726 588.341 217.314 585.436 202.315 566.337C187.317 547.238 190.417 519.187 209.482 503.925Z" fill="#C8E6C9"/>
<path d="M1244.48 576.925C1263.55 561.663 1290.96 564.568 1305.96 583.667C1320.96 602.766 1317.85 630.817 1298.79 646.079C1279.73 661.341 1252.31 658.436 1237.32 639.337C1222.32 620.238 1225.42 592.187 1244.48 576.925Z" fill="#C8E6C9"/>
<path d="M962 630.5C962 630.5 987.5 608 1013 630.5C1038.5 653 1013 675.5 1013 675.5C1013 675.5 987.5 698 962 675.5C936.5 653 962 630.5 962 630.5Z" fill="#C8E6C9"/>
<path d="M505 702.5C505 702.5 530.5 680 556 702.5C581.5 725 556 747.5 556 747.5C556 747.5 530.5 770 505 747.5C479.5 725 505 702.5 505 702.5Z" fill="#C8E6C9"/>
</g>
<defs>
<linearGradient id="paint0_linear_grassy" x1="720" y1="0" x2="720" y2="800" gradientUnits="userSpaceOnUse">
<stop stop-color="#A5D6A7"/>
<stop offset="1" stop-color="#81C784"/>
</linearGradient>
</defs>
</svg>