<svg width="100%" height="100%" viewBox="0 0 800 600" xmlns="http://www.w3.org/2000/svg">
  <defs>
    <linearGradient id="sandstorm-sky-gradient" x1="0%" y1="0%" x2="0%" y2="100%">
      <stop offset="0%" style="stop-color:#8B7355;stop-opacity:1" />
      <stop offset="50%" style="stop-color:#C19A6B;stop-opacity:1" />
      <stop offset="100%" style="stop-color:#E5C29F;stop-opacity:1" />
    </linearGradient>
  </defs>

  <!-- Sky -->
  <rect width="100%" height="400" fill="url(#sandstorm-sky-gradient)"/>

  <!-- Sand clouds/particles -->
  <g fill="#D2B48C" opacity="0.4">
    <ellipse cx="150" cy="100" rx="70" ry="40"/>
    <ellipse cx="230" cy="90" rx="60" ry="35"/>
    <ellipse cx="310" cy="110" rx="65" ry="38"/>
    
    <ellipse cx="480" cy="140" rx="75" ry="43"/>
    <ellipse cx="570" cy="130" rx="70" ry="40"/>
    <ellipse cx="660" cy="150" rx="65" ry="38"/>
  </g>

  <!-- Sand particles -->
  <g opacity="0.5">
    <circle cx="120" cy="200" r="2" fill="#C19A6B"/>
    <circle cx="180" cy="220" r="3" fill="#D2B48C"/>
    <circle cx="240" cy="210" r="2" fill="#C19A6B"/>
    <circle cx="300" cy="235" r="3" fill="#D2B48C"/>
    <circle cx="360" cy="215" r="2" fill="#C19A6B"/>
    <circle cx="420" cy="240" r="3" fill="#D2B48C"/>
    <circle cx="480" cy="225" r="2" fill="#C19A6B"/>
    <circle cx="540" cy="245" r="3" fill="#D2B48C"/>
    <circle cx="600" cy="230" r="2" fill="#C19A6B"/>
    <circle cx="660" cy="250" r="3" fill="#D2B48C"/>
    <circle cx="720" cy="235" r="2" fill="#C19A6B"/>
  </g>

  <!-- Misty Ground -->
  <rect x="0" y="400" width="100%" height="200" fill="#E1BEE7"/>

  <!-- Mist layers -->
  <g opacity="0.5">
    <ellipse cx="200" cy="450" rx="120" ry="40" fill="#F3E5F5"/>
    <ellipse cx="400" cy="470" rx="150" ry="50" fill="#F3E5F5"/>
    <ellipse cx="600" cy="460" rx="130" ry="45" fill="#F3E5F5"/>
    <ellipse cx="300" cy="520" rx="140" ry="35" fill="#F3E5F5"/>
    <ellipse cx="500" cy="530" rx="160" ry="40" fill="#F3E5F5"/>
  </g>

  <!-- Sparkles (dimmer in sandstorm) -->
  <g fill="#CE93D8" opacity="0.4">
    <circle cx="150" cy="480" r="3"/>
    <circle cx="250" cy="460" r="4"/>
    <circle cx="350" cy="490" r="3"/>
    <circle cx="450" cy="470" r="4"/>
    <circle cx="550" cy="500" r="3"/>
    <circle cx="650" cy="480" r="4"/>
    <circle cx="750" cy="490" r="3"/>
  </g>
</svg>
