<svg width="100%" height="100%" viewBox="0 0 800 600" xmlns="http://www.w3.org/2000/svg">
  <defs>
    <linearGradient id="sunny-sky-gradient" x1="0%" y1="0%" x2="0%" y2="100%">
      <stop offset="0%" style="stop-color:#87CEEB;stop-opacity:1" />
      <stop offset="50%" style="stop-color:#ADD8E6;stop-opacity:1" />
      <stop offset="100%" style="stop-color:#F0E68C;stop-opacity:1" />
    </linearGradient>
    <radialGradient id="sun-gradient" cx="50%" cy="50%" r="50%">
      <stop offset="0%" style="stop-color:#FFFF00;stop-opacity:1" />
      <stop offset="50%" style="stop-color:#FFD700;stop-opacity:0.8" />
      <stop offset="100%" style="stop-color:#FFA500;stop-opacity:0.3" />
    </radialGradient>
    <radialGradient id="psychic-gradient" cx="50%" cy="50%" r="50%">
      <stop offset="0%" style="stop-color:#E91E63;stop-opacity:0.6" />
      <stop offset="50%" style="stop-color:#9C27B0;stop-opacity:0.4" />
      <stop offset="100%" style="stop-color:#673AB7;stop-opacity:0.2" />
    </radialGradient>
  </defs>

  <!-- Sky -->
  <rect width="100%" height="400" fill="url(#sunny-sky-gradient)"/>

  <!-- Sun -->
  <circle cx="650" cy="100" r="60" fill="url(#sun-gradient)"/>
  
  <!-- Sun rays -->
  <g stroke="#FFD700" stroke-width="3" opacity="0.6">
    <line x1="650" y1="20" x2="650" y2="0" />
    <line x1="730" y1="100" x2="750" y2="100" />
    <line x1="650" y1="180" x2="650" y2="200" />
    <line x1="570" y1="100" x2="550" y2="100" />
    <line x1="710" y1="40" x2="725" y2="25" />
    <line x1="710" y1="160" x2="725" y2="175" />
    <line x1="590" y1="160" x2="575" y2="175" />
    <line x1="590" y1="40" x2="575" y2="25" />
  </g>

  <!-- Psychic Ground -->
  <rect x="0" y="400" width="100%" height="200" fill="#D1C4E9"/>

  <!-- Psychic energy circles -->
  <circle cx="200" cy="480" r="40" fill="url(#psychic-gradient)"/>
  <circle cx="400" cy="500" r="50" fill="url(#psychic-gradient)"/>
  <circle cx="600" cy="490" r="45" fill="url(#psychic-gradient)"/>
  
  <!-- Psychic waves -->
  <g stroke="#9C27B0" stroke-width="2" fill="none" opacity="0.3">
    <circle cx="200" cy="480" r="50"/>
    <circle cx="200" cy="480" r="60"/>
    <circle cx="400" cy="500" r="60"/>
    <circle cx="400" cy="500" r="70"/>
    <circle cx="600" cy="490" r="55"/>
    <circle cx="600" cy="490" r="65"/>
  </g>
</svg>
