<svg width="100%" height="100%" viewBox="0 0 800 600" xmlns="http://www.w3.org/2000/svg">
  <defs>
    <linearGradient id="sandstorm-sky-gradient" x1="0%" y1="0%" x2="0%" y2="100%">
      <stop offset="0%" style="stop-color:#8B7355;stop-opacity:1" />
      <stop offset="50%" style="stop-color:#C19A6B;stop-opacity:1" />
      <stop offset="100%" style="stop-color:#E5C29F;stop-opacity:1" />
    </linearGradient>
    <radialGradient id="psychic-gradient" cx="50%" cy="50%" r="50%">
      <stop offset="0%" style="stop-color:#E91E63;stop-opacity:0.6" />
      <stop offset="50%" style="stop-color:#9C27B0;stop-opacity:0.4" />
      <stop offset="100%" style="stop-color:#673AB7;stop-opacity:0.2" />
    </radialGradient>
  </defs>

  <!-- Sky -->
  <rect width="100%" height="400" fill="url(#sandstorm-sky-gradient)"/>

  <!-- Sand clouds/particles -->
  <g fill="#D2B48C" opacity="0.4">
    <ellipse cx="150" cy="100" rx="70" ry="40"/>
    <ellipse cx="230" cy="90" rx="60" ry="35"/>
    <ellipse cx="310" cy="110" rx="65" ry="38"/>
    
    <ellipse cx="480" cy="140" rx="75" ry="43"/>
    <ellipse cx="570" cy="130" rx="70" ry="40"/>
    <ellipse cx="660" cy="150" rx="65" ry="38"/>
  </g>

  <!-- Sand particles -->
  <g opacity="0.5">
    <circle cx="120" cy="200" r="2" fill="#C19A6B"/>
    <circle cx="180" cy="220" r="3" fill="#D2B48C"/>
    <circle cx="240" cy="210" r="2" fill="#C19A6B"/>
    <circle cx="300" cy="235" r="3" fill="#D2B48C"/>
    <circle cx="360" cy="215" r="2" fill="#C19A6B"/>
    <circle cx="420" cy="240" r="3" fill="#D2B48C"/>
    <circle cx="480" cy="225" r="2" fill="#C19A6B"/>
    <circle cx="540" cy="245" r="3" fill="#D2B48C"/>
    <circle cx="600" cy="230" r="2" fill="#C19A6B"/>
    <circle cx="660" cy="250" r="3" fill="#D2B48C"/>
    <circle cx="720" cy="235" r="2" fill="#C19A6B"/>
  </g>

  <!-- Psychic Ground -->
  <rect x="0" y="400" width="100%" height="200" fill="#D1C4E9"/>

  <!-- Psychic energy circles -->
  <circle cx="200" cy="480" r="40" fill="url(#psychic-gradient)"/>
  <circle cx="400" cy="500" r="50" fill="url(#psychic-gradient)"/>
  <circle cx="600" cy="490" r="45" fill="url(#psychic-gradient)"/>
  
  <!-- Psychic waves -->
  <g stroke="#9C27B0" stroke-width="2" fill="none" opacity="0.3">
    <circle cx="200" cy="480" r="50"/>
    <circle cx="200" cy="480" r="60"/>
    <circle cx="400" cy="500" r="60"/>
    <circle cx="400" cy="500" r="70"/>
    <circle cx="600" cy="490" r="55"/>
    <circle cx="600" cy="490" r="65"/>
  </g>
</svg>
