<svg width="100%" height="100%" viewBox="0 0 800 600" xmlns="http://www.w3.org/2000/svg">
  <defs>
    <linearGradient id="hail-sky-gradient" x1="0%" y1="0%" x2="0%" y2="100%">
      <stop offset="0%" style="stop-color:#1E3A5F;stop-opacity:1" />
      <stop offset="50%" style="stop-color:#4A6FA5;stop-opacity:1" />
      <stop offset="100%" style="stop-color:#B0C4DE;stop-opacity:1" />
    </linearGradient>
  </defs>

  <!-- Sky -->
  <rect width="100%" height="100%" fill="url(#hail-sky-gradient)"/>

  <!-- Dark clouds -->
  <g fill="#2C3E50" opacity="0.8">
    <ellipse cx="180" cy="90" rx="60" ry="35"/>
    <ellipse cx="240" cy="80" rx="70" ry="40"/>
    <ellipse cx="300" cy="95" rx="55" ry="33"/>
    
    <ellipse cx="500" cy="130" rx="65" ry="38"/>
    <ellipse cx="570" cy="120" rx="75" ry="43"/>
    <ellipse cx="640" cy="135" rx="60" ry="35"/>
  </g>

  <!-- Hail -->
  <g fill="#E8F4F8" opacity="0.8">
    <circle cx="120" cy="180" r="4"/>
    <circle cx="170" cy="200" r="5"/>
    <circle cx="220" cy="190" r="4"/>
    <circle cx="270" cy="210" r="5"/>
    <circle cx="320" cy="195" r="4"/>
    <circle cx="370" cy="215" r="5"/>
    <circle cx="420" cy="205" r="4"/>
    <circle cx="470" cy="225" r="5"/>
    <circle cx="520" cy="210" r="4"/>
    <circle cx="570" cy="230" r="5"/>
    <circle cx="620" cy="220" r="4"/>
    <circle cx="670" cy="240" r="5"/>
    <circle cx="720" cy="225" r="4"/>
    
    <circle cx="100" cy="280" r="4"/>
    <circle cx="150" cy="300" r="5"/>
    <circle cx="200" cy="290" r="4"/>
    <circle cx="250" cy="310" r="5"/>
    <circle cx="300" cy="295" r="4"/>
    <circle cx="350" cy="315" r="5"/>
    <circle cx="400" cy="305" r="4"/>
    <circle cx="450" cy="325" r="5"/>
    <circle cx="500" cy="310" r="4"/>
    <circle cx="550" cy="330" r="5"/>
    <circle cx="600" cy="320" r="4"/>
    <circle cx="650" cy="340" r="5"/>
    <circle cx="700" cy="325" r="4"/>
    <circle cx="750" cy="345" r="5"/>
  </g>

  <!-- Ground with snow -->
  <rect x="0" y="400" width="100%" height="200" fill="#D0D8E0"/>
  
  <!-- Snow patches -->
  <g fill="#FFFFFF" opacity="0.6">
    <ellipse cx="100" cy="420" rx="40" ry="10"/>
    <ellipse cx="250" cy="430" rx="50" ry="12"/>
    <ellipse cx="450" cy="425" rx="45" ry="11"/>
    <ellipse cx="650" cy="435" rx="55" ry="13"/>
  </g>
</svg>
